# xmcd
#
# Track frame offsets:
#	150
#	18892
#	36005
#	54755
#	73260
#	92717
#	113915
#	130752
#	148012
#	163685
#	178965
#	193280
#	224043
#
# Disc length: 4440 seconds
#
# Revision: 6
# Processed by: cddbd v1.5.2PL0 Copyright (c) Steve Scherf et al.
# Submitted via: audiograbber 1.83.01
#
DISCID=c311560d
DTITLE=BSO DIRTY DANCING 2 - TQM - Dirty Dancing 2 Soundtrack
DYEAR=2004
DGENRE=Soundtrack
TTITLE0=WYCLEF JEAN (Feat. CLAUDETTE ORTIZ) - Dance Like This
TTITLE1=BLACK EYED PEAS - Dirty Dancing
TTITLE2=YERBA BUENA - Guajira (I Love U 2 Much)
TTITLE3=JAZZE PHA (Feat. MONICA) - Can I Walk By
TTITLE4=SANTANA (Feat. HEATHER HEADLEY) - Satellite
TTITLE5=CHRISTINA AGUILERA - El Beso Del Final
TTITLE6=ORISHAS (Feat. HEATHER HEADLEY) - Represent, Cuba
TTITLE7=MYA - Do You Only Wanna Dance
TTITLE8=SHAWN KANE - You Send Me
TTITLE9=ATERCIOPELADOS - El Estuche
TTITLE10=JULIO DAIVEL BIG BAND Big Band (Conducted By CUCCO PEÑA) - Do You Only
TTITLE10=Wanna Dance
TTITLE11=SANTANA (Feat. JORGE MORENO) - Satellite (Spanish Version) Nave Espaci
TTITLE11=al (Bonus Track)
TTITLE12=Bonus Track
EXTD=TQM
EXTT0=
EXTT1=
EXTT2=
EXTT3=
EXTT4=
EXTT5=
EXTT6=
EXTT7=
EXTT8=
EXTT9=
EXTT10=
EXTT11=
EXTT12=
PLAYORDER=
